<svg xmlns="http://www.w3.org/2000/svg" xmlns:xlink="http://www.w3.org/1999/xlink" width="500" zoomAndPan="magnify"
    viewBox="0 0 375 374.999991" height="500" preserveAspectRatio="xMidYMid meet" version="1.0">
    <defs>
        <clipPath id="5b113b00ec">
            <path d="M 199 20.011719 L 374 20.011719 L 374 338 L 199 338 Z M 199 20.011719 " clip-rule="nonzero" />
        </clipPath>
    </defs>
    <path fill="#ffffff"
        d="M 318.058594 195.757812 C 319.070312 189.402344 319.570312 183.757812 319.570312 178.492188 C 319.570312 173.699219 319.148438 168.597656 318.257812 162.453125 C 318.027344 160.910156 318.773438 159.378906 320.125 158.597656 L 356.773438 137.425781 L 319.152344 72.34375 L 282.558594 93.484375 C 281.203125 94.269531 279.503906 94.144531 278.269531 93.164062 C 269.859375 86.46875 260.515625 81.058594 250.507812 77.109375 C 249.054688 76.535156 248.089844 75.125 248.089844 73.558594 L 248.089844 31.308594 L 205.625 31.308594 L 205.625 124.335938 L 210.503906 124.335938 C 240.367188 124.335938 264.664062 148.632812 264.664062 178.492188 C 264.664062 208.355469 240.367188 232.648438 210.503906 232.648438 L 205.625 232.648438 L 205.625 325.671875 L 248.089844 325.671875 L 248.089844 283.433594 C 248.089844 281.863281 249.042969 280.457031 250.507812 279.882812 C 260.171875 276.050781 269.175781 270.898438 277.265625 264.574219 C 278.503906 263.597656 280.210938 263.484375 281.5625 264.292969 L 317.960938 285.863281 L 356.285156 221.203125 L 319.890625 199.640625 C 318.535156 198.847656 317.8125 197.300781 318.058594 195.757812 Z M 318.058594 195.757812 "
        fill-opacity="1" fill-rule="nonzero" />
    <path fill="#ffffff"
        d="M 40.945312 171.027344 C 31.175781 171.027344 22.460938 172.550781 15.011719 175.546875 C 0.996094 210.5 23.230469 266.648438 52.46875 295.863281 C 71.285156 314.679688 96.082031 325.039062 122.292969 325.039062 C 133.898438 325.039062 145.144531 322.980469 155.785156 318.957031 L 127.332031 290.855469 L 69.566406 285.203125 C 67.460938 285 65.933594 283.128906 66.132812 281.03125 C 66.34375 278.9375 68.15625 277.453125 70.308594 277.601562 L 118.691406 282.335938 L 96.996094 260.910156 C 96.796875 260.753906 96.625 260.582031 96.460938 260.386719 L 58.417969 222.824219 C 56.917969 221.34375 56.902344 218.921875 58.378906 217.429688 C 59.871094 215.929688 62.289062 215.914062 63.78125 217.386719 L 95.460938 248.667969 L 95.179688 217.675781 C 95.160156 215.574219 96.855469 213.847656 98.964844 213.832031 L 98.992188 213.832031 C 101.089844 213.832031 102.796875 215.515625 102.8125 217.613281 L 103.164062 256.273438 L 160.585938 312.96875 C 172.808594 278.320312 163.703125 238.292969 136.835938 211.445312 C 113.417969 188.027344 73.085938 171.027344 40.945312 171.027344 Z M 40.945312 171.027344 "
        fill-opacity="1" fill-rule="nonzero" />
    <path fill="#bbd541"
        d="M 165.953125 175.441406 C 165.09375 175.441406 164.21875 175.152344 163.5 174.546875 L 149.488281 162.75 L 166.050781 181.898438 L 166.050781 175.425781 C 166.023438 175.421875 165.984375 175.441406 165.953125 175.441406 Z M 165.953125 175.441406 "
        fill-opacity="1" fill-rule="nonzero" />
    <path fill="#bbd541"
        d="M 174.542969 62.828125 C 108.394531 69.777344 84.503906 115.144531 65.25 164.996094 C 65.125 165.324219 65.140625 165.660156 65.050781 165.992188 C 93.375 171.710938 122.773438 186.582031 142.246094 206.050781 C 152.816406 216.613281 160.769531 229.101562 166.054688 242.496094 L 174.546875 191.703125 L 174.546875 62.828125 Z M 174.542969 62.828125 "
        fill-opacity="1" fill-rule="nonzero" />
    <g clip-path="url(#5b113b00ec)">
        <path fill="#81a466"
            d="M 255.730469 337.128906 L 207.25 337.128906 C 203.039062 337.128906 199.613281 333.707031 199.613281 329.492188 C 199.613281 325.273438 203.039062 321.855469 207.25 321.855469 L 248.09375 321.855469 L 248.09375 283.4375 C 248.09375 280.304688 250.003906 277.492188 252.917969 276.339844 C 262.242188 272.640625 270.929688 267.671875 278.730469 261.566406 C 281.203125 259.625 284.621094 259.414062 287.328125 261.015625 L 320.4375 280.644531 L 354.867188 222.546875 L 321.761719 202.933594 C 319.058594 201.332031 317.613281 198.253906 318.105469 195.15625 C 319.089844 189 319.5625 183.550781 319.5625 178.496094 C 319.5625 173.886719 319.15625 168.964844 318.296875 163.003906 C 317.839844 159.910156 319.320312 156.851562 322.03125 155.292969 L 355.363281 136.03125 L 321.574219 77.5625 L 288.289062 96.785156 C 285.566406 98.351562 282.164062 98.097656 279.710938 96.152344 C 271.589844 89.6875 262.574219 84.480469 252.917969 80.664062 C 250.003906 79.507812 248.085938 76.695312 248.085938 73.554688 L 248.085938 35.128906 L 207.242188 35.128906 C 203.03125 35.128906 199.605469 31.703125 199.605469 27.488281 C 199.605469 23.269531 203.03125 19.855469 207.242188 19.855469 L 255.722656 19.855469 C 259.933594 19.855469 263.355469 23.269531 263.355469 27.488281 L 263.355469 68.480469 C 271.003906 71.898438 278.261719 76.097656 285.039062 81.019531 L 320.542969 60.511719 C 324.199219 58.40625 328.863281 59.652344 330.972656 63.300781 L 372.40625 134.996094 C 373.417969 136.75 373.691406 138.835938 373.171875 140.789062 C 372.652344 142.746094 371.367188 144.414062 369.617188 145.429688 L 334.082031 165.960938 C 334.59375 170.496094 334.835938 174.5625 334.835938 178.484375 C 334.835938 182.875 334.539062 187.449219 333.925781 192.378906 L 369.222656 213.28125 C 370.960938 214.320312 372.226562 216 372.722656 217.960938 C 373.226562 219.929688 372.929688 222.007812 371.898438 223.746094 L 329.683594 294.992188 C 328.65625 296.742188 326.972656 298 325.007812 298.5 C 323.050781 298.996094 320.96875 298.707031 319.21875 297.675781 L 283.917969 276.746094 C 277.496094 281.324219 270.617188 285.261719 263.359375 288.5 L 263.359375 329.492188 C 263.363281 333.707031 259.941406 337.128906 255.730469 337.128906 Z M 255.730469 337.128906 "
            fill-opacity="1" fill-rule="nonzero" />
    </g>
    <path fill="#81a466"
        d="M 214.324219 236.46875 L 207.335938 236.46875 C 203.117188 236.46875 199.699219 233.046875 199.699219 228.832031 C 199.699219 224.613281 203.117188 221.199219 207.335938 221.199219 L 214.324219 221.199219 C 237.871094 221.199219 257.019531 202.039062 257.019531 178.496094 C 257.019531 154.953125 237.871094 135.792969 214.324219 135.792969 L 207.25 135.792969 C 203.039062 135.792969 199.613281 132.371094 199.613281 128.160156 C 199.613281 123.941406 203.039062 120.519531 207.25 120.519531 L 214.324219 120.519531 C 246.285156 120.519531 272.289062 146.535156 272.289062 178.496094 C 272.289062 210.464844 246.285156 236.46875 214.324219 236.46875 Z M 214.324219 236.46875 "
        fill-opacity="1" fill-rule="nonzero" />
    <path fill="#81a466"
        d="M 173.6875 328.316406 C 169.46875 328.316406 166.050781 324.890625 166.050781 320.679688 L 166.050781 80.113281 C 166.050781 75.898438 169.46875 72.476562 173.6875 72.476562 C 177.898438 72.476562 181.328125 75.898438 181.328125 80.113281 L 181.328125 320.679688 C 181.328125 324.890625 177.898438 328.316406 173.6875 328.316406 Z M 173.6875 328.316406 "
        fill-opacity="1" fill-rule="nonzero" />
    <path fill="#81a466"
        d="M 65.246094 172.632812 C 61.035156 172.632812 57.613281 169.21875 57.613281 164.996094 C 57.597656 103.910156 101.675781 48.296875 167.289062 26.617188 C 171.292969 25.308594 175.613281 27.476562 176.9375 31.472656 C 178.253906 35.476562 176.089844 39.792969 172.085938 41.121094 C 112.738281 60.722656 72.878906 110.503906 72.886719 164.988281 C 72.886719 169.210938 69.472656 172.632812 65.246094 172.632812 Z M 65.246094 172.632812 "
        fill-opacity="1" fill-rule="nonzero" />
    <path fill="#81a466"
        d="M 169.765625 179.261719 C 168.035156 179.261719 166.28125 178.671875 164.851562 177.472656 L 114.121094 134.757812 C 110.890625 132.039062 110.480469 127.222656 113.191406 123.996094 C 115.910156 120.773438 120.734375 120.363281 123.953125 123.078125 L 174.683594 165.785156 C 177.910156 168.503906 178.320312 173.320312 175.605469 176.550781 C 174.109375 178.335938 171.941406 179.261719 169.765625 179.261719 Z M 169.765625 179.261719 "
        fill-opacity="1" fill-rule="nonzero" />
    <path fill="#81a466"
        d="M 126.109375 336.496094 C 126.109375 336.496094 126.109375 336.496094 126.101562 336.496094 C 96.835938 336.496094 69.164062 324.945312 48.175781 303.964844 C 15.265625 271.066406 -8.371094 209.226562 8.898438 169.582031 C 9.667969 167.8125 11.078125 166.402344 12.839844 165.625 C 22.042969 161.617188 32.785156 159.582031 44.761719 159.582031 C 80.214844 159.582031 122.972656 177.578125 148.757812 203.347656 C 180.542969 235.109375 190.089844 283.496094 172.523438 323.746094 C 171.753906 325.511719 170.347656 326.917969 168.578125 327.691406 C 155.203125 333.535156 140.914062 336.496094 126.109375 336.496094 Z M 21.777344 178.5 C 9.546875 212.148438 31.019531 265.222656 58.976562 293.164062 C 77.078125 311.261719 100.917969 321.21875 126.109375 321.21875 C 137.773438 321.21875 149.046875 319.082031 159.683594 314.851562 C 173.144531 280.882812 164.605469 240.773438 137.960938 214.144531 C 115.183594 191.378906 75.988281 174.851562 44.765625 174.851562 C 36.148438 174.851562 28.433594 176.074219 21.777344 178.5 Z M 21.777344 178.5 "
        fill-opacity="1" fill-rule="nonzero" />
    <path fill="#81a466"
        d="M 193.789062 354.980469 C 191.847656 354.980469 189.910156 354.25 188.425781 352.785156 L 59.558594 225.550781 C 56.554688 222.578125 56.523438 217.75 59.492188 214.746094 C 62.460938 211.746094 67.292969 211.71875 70.292969 214.675781 L 199.15625 341.910156 C 202.152344 344.878906 202.183594 349.707031 199.226562 352.710938 C 197.730469 354.222656 195.761719 354.980469 193.789062 354.980469 Z M 193.789062 354.980469 "
        fill-opacity="1" fill-rule="nonzero" />
    <path fill="#81a466"
        d="M 103.183594 265.628906 C 98.992188 265.628906 95.585938 262.257812 95.546875 258.054688 L 95.183594 217.71875 C 95.144531 213.503906 98.527344 210.050781 102.75 210.011719 C 102.773438 210.011719 102.796875 210.011719 102.816406 210.011719 C 107 210.011719 110.414062 213.378906 110.457031 217.582031 L 110.820312 257.921875 C 110.855469 262.132812 107.46875 265.585938 103.25 265.628906 C 103.230469 265.628906 103.210938 265.628906 103.183594 265.628906 Z M 103.183594 265.628906 "
        fill-opacity="1" fill-rule="nonzero" />
    <path fill="#81a466"
        d="M 132.703125 294.808594 C 132.453125 294.808594 132.199219 294.792969 131.945312 294.769531 L 73.007812 289.003906 C 68.808594 288.59375 65.738281 284.859375 66.148438 280.660156 C 66.558594 276.464844 70.320312 273.421875 74.492188 273.804688 L 133.4375 279.570312 C 137.628906 279.980469 140.699219 283.71875 140.292969 287.914062 C 139.910156 291.851562 136.585938 294.808594 132.703125 294.808594 Z M 132.703125 294.808594 "
        fill-opacity="1" fill-rule="nonzero" />
</svg>
