<svg xmlns="http://www.w3.org/2000/svg" xmlns:xlink="http://www.w3.org/1999/xlink" width="500" zoomAndPan="magnify" viewBox="0 0 375 374.999991" height="500" preserveAspectRatio="xMidYMid meet" version="1.0"><defs><clipPath id="cbb70b31a5"><path d="M 10.222656 60.332031 L 232 60.332031 L 232 283 L 10.222656 283 Z M 10.222656 60.332031 " clip-rule="nonzero"/></clipPath><clipPath id="416ab6e753"><path d="M 217 176 L 362.722656 176 L 362.722656 282 L 217 282 Z M 217 176 " clip-rule="nonzero"/></clipPath><clipPath id="7d29a7e85a"><path d="M 163 60.332031 L 362.722656 60.332031 L 362.722656 229 L 163 229 Z M 163 60.332031 " clip-rule="nonzero"/></clipPath></defs><g clip-path="url(#cbb70b31a5)"><path fill="#2a9d8f" d="M 121.71875 172.539062 L 164.65625 258.703125 L 165.753906 260.910156 C 172.515625 273.507812 189.417969 282.113281 206.332031 282.113281 L 231.53125 282.113281 L 203.136719 225.324219 L 171.582031 162.222656 L 143.230469 105.511719 L 120.882812 60.804688 L 10.222656 282.113281 L 83.378906 282.113281 C 110.421875 282.113281 132.5625 259.988281 132.5625 232.929688 L 91.0625 232.929688 L 120.871094 170.839844 Z M 121.71875 172.539062 " fill-opacity="1" fill-rule="nonzero"/></g><g clip-path="url(#416ab6e753)"><path fill="#2a9d8f" d="M 217.230469 191.441406 L 258.425781 232.328125 C 256.273438 232.632812 254.429688 232.632812 252.277344 232.632812 C 241.6875 232.632812 231.753906 229.988281 223.070312 225.335938 L 251.300781 281.796875 C 251.628906 281.796875 251.949219 281.816406 252.277344 281.816406 C 268.566406 281.816406 284.238281 278.128906 298.386719 271.675781 C 317.75 286.429688 345.421875 285.199219 362.9375 267.375 L 286.710938 191.453125 C 267.644531 172.078125 236.59375 172.078125 217.230469 191.441406 Z M 217.230469 191.441406 " fill-opacity="1" fill-rule="nonzero"/></g><g clip-path="url(#7d29a7e85a)"><path fill="#2a9d8f" d="M 252.277344 60.496094 C 215.695312 60.496094 183.304688 78.203125 163.164062 105.511719 L 191.515625 162.222656 C 195.839844 132.609375 221.214844 109.679688 252.265625 109.679688 C 286.085938 109.679688 313.742188 137.339844 313.742188 171.15625 L 313.128906 182.222656 C 313.128906 204.042969 327.265625 222.492188 346.640625 228.945312 C 357.089844 212.042969 362.925781 192.375 362.925781 171.15625 C 362.925781 157.941406 360.46875 145.34375 356.164062 133.34375 C 340.800781 90.933594 300.222656 60.496094 252.277344 60.496094 Z M 252.277344 60.496094 " fill-opacity="1" fill-rule="nonzero"/></g></svg>